<?xml version="1.0" encoding="UTF-8"?>
<svg width="16px" height="68px" viewBox="0 0 16 68" version="1.1" xmlns="http://www.w3.org/2000/svg" xmlns:xlink="http://www.w3.org/1999/xlink">
    <!-- Generator: Sketch 58 (84663) - https://sketch.com -->
    <title>icon/arrow</title>
    <desc>Created with Sketch.</desc>
    <g id="icon/arrow" stroke="none" stroke-width="1" fill="none" fill-rule="evenodd">
        <path d="M-18.1401432,42 C-17.5374661,41.9994712 -16.9943676,41.6370629 -16.7638047,41.0815729 C-16.5332419,40.5260828 -16.6605559,39.8867503 -17.0864481,39.4613551 L-21.0030128,35.554222 L40.5089221,35.4207525 C41.3324217,35.4207525 42,34.7547818 42,33.9332652 C42,33.1117487 41.3324217,32.445778 40.5089221,32.445778 L-21.33105,32.5792475 L-17.1361507,28.7117807 C-16.6583878,28.3828474 -16.4154168,27.8072042 -16.5134202,27.236417 C-16.6114237,26.6656298 -17.0325844,26.2034686 -17.592848,26.0519059 C-18.1531115,25.9003431 -18.750621,26.0869331 -19.1242546,26.5301328 L-25.5855923,32.4800817 C-26.1381359,33.2729633 -26.1381359,34.3250108 -25.5855923,35.1178924 L-19.1242546,41.5636704 C-18.8621608,41.8263386 -18.5112139,41.9819394 -18.1401432,42 Z" id="Shape-Copy-3" fill="#FFFFFF" transform="translate(8.000000, 34.000000) scale(-1, -1) rotate(90.000000) translate(-8.000000, -34.000000) "></path>
    </g>
</svg>