<?xml version="1.0" encoding="utf-8"?>
<!-- Generator: Adobe Illustrator 24.0.1, SVG Export Plug-In . SVG Version: 6.00 Build 0)  -->
<svg version="1.1" id="圖層_1" xmlns="http://www.w3.org/2000/svg" xmlns:xlink="http://www.w3.org/1999/xlink" x="0px" y="0px"
	 viewBox="0 0 68 16" style="enable-background:new 0 0 68 16;" xml:space="preserve">
<style type="text/css">
	.st0{fill-rule:evenodd;clip-rule:evenodd;fill:#FFFFFF;}
</style>
<title>Shape Copy 4</title>
<desc>Created with Sketch.</desc>
<g id="style-guide">
	<g id="Artboard" transform="translate(-1318.000000, -994.000000)">
		<path id="Shape-Copy-4" class="st0" d="M1378.1,1010c-0.6,0-1.1-0.4-1.4-0.9c-0.2-0.6-0.1-1.2,0.3-1.6l3.9-3.9l-61.5-0.1
			c-0.8,0-1.5-0.7-1.5-1.5c0-0.8,0.7-1.5,1.5-1.5l61.8,0.1l-4.2-3.9c-0.5-0.3-0.7-0.9-0.6-1.5c0.1-0.6,0.5-1,1.1-1.2
			c0.6-0.2,1.2,0,1.5,0.5l6.5,5.9c0.6,0.8,0.6,1.8,0,2.6l-6.5,6.4C1378.9,1009.8,1378.5,1010,1378.1,1010z"/>
	</g>
</g>
</svg>
