<?xml version="1.0" encoding="UTF-8"?>
<svg width="68px" height="16px" viewBox="0 0 68 16" version="1.1" xmlns="http://www.w3.org/2000/svg" xmlns:xlink="http://www.w3.org/1999/xlink">
    <!-- Generator: Sketch 58 (84663) - https://sketch.com -->
    <title>Shape Copy 4</title>
    <desc>Created with Sketch.</desc>
    <g id="style-guide" stroke="none" stroke-width="1" fill="none" fill-rule="evenodd">
        <g id="Artboard" transform="translate(-1318.000000, -994.000000)" fill="#000000">
            <path d="M1325.85986,1010 C1326.46253,1009.99947 1327.00563,1009.63706 1327.2362,1009.08157 C1327.46676,1008.52608 1327.33944,1007.88675 1326.91355,1007.46136 L1322.99699,1003.55422 L1384.50892,1003.42075 C1385.33242,1003.42075 1386,1002.75478 1386,1001.93327 C1386,1001.11175 1385.33242,1000.44578 1384.50892,1000.44578 L1322.66895,1000.57925 L1326.86385,996.711781 C1327.34161,996.382847 1327.58458,995.807204 1327.48658,995.236417 C1327.38858,994.66563 1326.96742,994.203469 1326.40715,994.051906 C1325.84689,993.900343 1325.24938,994.086933 1324.87575,994.530133 L1318.41441,1000.48008 C1317.86186,1001.27296 1317.86186,1002.32501 1318.41441,1003.11789 L1324.87575,1009.56367 C1325.13784,1009.82634 1325.48879,1009.98194 1325.85986,1010 Z" id="Shape-Copy-4" transform="translate(1352.000000, 1002.000000) scale(-1, 1) translate(-1352.000000, -1002.000000) "></path>
        </g>
    </g>
</svg>