<?xml version="1.0" encoding="UTF-8"?>
<svg width="16px" height="68px" viewBox="0 0 16 68" version="1.1" xmlns="http://www.w3.org/2000/svg" xmlns:xlink="http://www.w3.org/1999/xlink">
    <!-- Generator: Sketch 58 (84663) - https://sketch.com -->
    <title>Shape Copy 3</title>
    <desc>Created with Sketch.</desc>
    <g id="style-guide" stroke="none" stroke-width="1" fill="none" fill-rule="evenodd">
        <g id="Artboard" transform="translate(-1253.000000, -968.000000)" fill="#000000">
            <path d="M1234.85986,1010 C1235.46253,1009.99947 1236.00563,1009.63706 1236.2362,1009.08157 C1236.46676,1008.52608 1236.33944,1007.88675 1235.91355,1007.46136 L1231.99699,1003.55422 L1293.50892,1003.42075 C1294.33242,1003.42075 1295,1002.75478 1295,1001.93327 C1295,1001.11175 1294.33242,1000.44578 1293.50892,1000.44578 L1231.66895,1000.57925 L1235.86385,996.711781 C1236.34161,996.382847 1236.58458,995.807204 1236.48658,995.236417 C1236.38858,994.66563 1235.96742,994.203469 1235.40715,994.051906 C1234.84689,993.900343 1234.24938,994.086933 1233.87575,994.530133 L1227.41441,1000.48008 C1226.86186,1001.27296 1226.86186,1002.32501 1227.41441,1003.11789 L1233.87575,1009.56367 C1234.13784,1009.82634 1234.48879,1009.98194 1234.85986,1010 Z" id="Shape-Copy-3" transform="translate(1261.000000, 1002.000000) scale(-1, 1) rotate(90.000000) translate(-1261.000000, -1002.000000) "></path>
        </g>
    </g>
</svg>