<svg xmlns="http://www.w3.org/2000/svg" width="20" height="20" viewBox="0 0 20 20">
    <g fill="#FFF" fill-rule="evenodd">
        <path d="M9.99 2.142a6.567 6.567 0 0 0-6.4 6.4 7.09 7.09 0 0 0 .835 2.955l.05.089c3.868 6.2 5.024 6.2 5.514 6.2.768 0 1.597-.54 3.556-3.295a51.023 51.023 0 0 0 1.945-2.909l.05-.085a7.09 7.09 0 0 0 .85-2.955 6.567 6.567 0 0 0-6.4-6.4zm4.622 8.89s-3.556 5.688-4.623 5.688c-1.066 0-4.622-5.689-4.622-5.689a6.066 6.066 0 0 1-.711-2.489 5.333 5.333 0 1 1 10.667 0 6.066 6.066 0 0 1-.722 2.49h.01z"/>
        <path d="M9.99 5.342a2.844 2.844 0 1 0 0 5.69 2.844 2.844 0 0 0 0-5.69zm0 4.622a1.778 1.778 0 1 1 0-3.555 1.778 1.778 0 0 1 0 3.555z"/>
    </g>
</svg>
