<svg xmlns="http://www.w3.org/2000/svg" width="20" height="20" viewBox="0 0 20 20">
    <path fill="#FFF" fill-rule="evenodd" d="M16.834 4.142H3.323c-.59 0-1.067.478-1.067 1.067v9.955c0 .59.478 1.067 1.067 1.067h13.51c.59 0 1.067-.477 1.067-1.067V5.21c0-.59-.477-1.067-1.066-1.067zm0 10.269l-2.823-2.823a.533.533 0 0 0-.754.753l2.823 2.823H4.076L6.9 12.341a.533.533 0 0 0-.754-.753L3.323 14.41V7.566l6.4 4.825c.19.142.45.142.64 0l6.464-4.828.007 6.848zm0-9.202v1.024l-6.78 5.067-6.731-5.067V5.209h13.51z"/>
</svg>
