<svg xmlns="http://www.w3.org/2000/svg" width="20" height="20" viewBox="0 0 20 20">
    <g fill="#FFF" fill-rule="evenodd" transform="translate(5.333 2)">
        <path d="M9.5 2.631A2.489 2.489 0 0 0 7.012.142H2.745a2.489 2.489 0 0 0-2.489 2.49v10.666a2.489 2.489 0 0 0 2.489 2.489h4.267a2.489 2.489 0 0 0 2.488-2.49V2.632zm-8.177.711h7.11v8.534h-7.11V3.342zM2.745 1.21h4.267c.646.002 1.21.44 1.372 1.067H1.372a1.422 1.422 0 0 1 1.373-1.067zM7.012 14.72H2.745a1.422 1.422 0 0 1-1.422-1.422v-.356h7.11v.356c0 .785-.636 1.422-1.421 1.422z"/>
        <circle cx="4.7" cy="13.831" r="1"/>
    </g>
</svg>
