<?xml version="1.0" encoding="UTF-8"?>
<svg width="30px" height="30px" viewBox="0 0 30 30" version="1.1" xmlns="http://www.w3.org/2000/svg" xmlns:xlink="http://www.w3.org/1999/xlink">
    <!-- Generator: Sketch 58 (84663) - https://sketch.com -->
    <title>icon/mobile</title>
    <desc>Created with Sketch.</desc>
    <g id="icon/mobile" stroke="none" stroke-width="1" fill="none" fill-rule="evenodd">
        <g id="Mobile" transform="translate(8.000000, 3.000000)" fill="#000000">
            <path d="M14.2506667,3.94666667 C14.2506667,1.8848036 12.5791964,0.213333333 10.5173333,0.213333333 L4.11733333,0.213333333 C2.05547027,0.213333333 0.384,1.8848036 0.384,3.94666667 L0.384,19.9466667 C0.384,22.0085297 2.05547027,23.68 4.11733333,23.68 L10.5173333,23.68 C12.5791964,23.68 14.2506667,22.0085297 14.2506667,19.9466667 L14.2506667,3.94666667 Z M1.984,5.01333333 L12.6506667,5.01333333 L12.6506667,17.8133333 L1.984,17.8133333 L1.984,5.01333333 Z M4.11733333,1.81333333 L10.5173333,1.81333333 C11.4875504,1.81648384 12.3334496,2.47391843 12.576,3.41333333 L2.05866667,3.41333333 C2.30121709,2.47391843 3.14711628,1.81648384 4.11733333,1.81333333 Z M10.5173333,22.08 L4.11733333,22.08 C2.93912587,22.08 1.984,21.1248741 1.984,19.9466667 L1.984,19.4133333 L12.6506667,19.4133333 L12.6506667,19.9466667 C12.6506667,21.1248741 11.6955408,22.08 10.5173333,22.08 Z" id="Shape"></path>
            <circle id="Oval" cx="7.05066667" cy="20.7466667" r="1"></circle>
        </g>
    </g>
</svg>