<?xml version="1.0" encoding="UTF-8"?>
<svg width="30px" height="30px" viewBox="0 0 30 30" version="1.1" xmlns="http://www.w3.org/2000/svg" xmlns:xlink="http://www.w3.org/1999/xlink">
    <!-- Generator: Sketch 58 (84663) - https://sketch.com -->
    <title>icon/close</title>
    <desc>Created with Sketch.</desc>
    <g id="icon/close" stroke="none" stroke-width="1" fill="none" fill-rule="evenodd">
        <g id="Close-3" transform="translate(3.000000, 3.000000)" fill="#FFFFFF">
            <path d="M13.5675,12.3 L23.0925,2.5875 C23.5022906,2.1404711 23.4840104,1.44908133 23.0511701,1.02433146 C22.6183297,0.599581595 21.9267181,0.594348537 21.4875,1.0125 L11.9775,10.71 L2.0775,0.9975 C1.79407247,0.699793257 1.37084114,0.580364327 0.973597861,0.685996948 C0.576354584,0.791629569 0.268345233,1.10550576 0.170225902,1.50467123 C0.0721065711,1.9038367 0.19949903,2.32473952 0.5025,2.6025 L10.3875,12.3 L0.5025,21.9975 C0.0843485374,22.4367181 0.089581595,23.1283297 0.514331461,23.5611701 C0.939081327,23.9940104 1.6304711,24.0122906 2.0775,23.6025 L11.9775,13.89 L21.4875,23.5875 C21.9267181,24.0056515 22.6183297,24.0004184 23.0511701,23.5756685 C23.4840104,23.1509187 23.5022906,22.4595289 23.0925,22.0125 L13.5675,12.3 Z" id="Shape"></path>
        </g>
    </g>
</svg>