<?xml version="1.0" encoding="UTF-8"?>
<svg width="30px" height="30px" viewBox="0 0 30 30" version="1.1" xmlns="http://www.w3.org/2000/svg" xmlns:xlink="http://www.w3.org/1999/xlink">
    <!-- Generator: Sketch 58 (84663) - https://sketch.com -->
    <title>icon/location</title>
    <desc>Created with Sketch.</desc>
    <g id="icon/location" stroke="none" stroke-width="1" fill="none" fill-rule="evenodd">
        <g id="Location" transform="translate(5.000000, 3.000000)" fill="#000000">
            <path d="M9.984,0.213333333 C4.73766647,0.34521976 0.515886426,4.5669998 0.384,9.81333333 C0.473008881,11.364484 0.900818617,12.877292 1.63733333,14.2453333 L1.712,14.3786667 C7.51466667,23.68 9.248,23.68 9.984,23.68 C11.136,23.68 12.3786667,22.8693333 15.3173333,18.736 C16.8586667,16.6026667 18.1813333,14.4693333 18.2346667,14.3733333 L18.3093333,14.2453333 C19.0532818,12.8790178 19.4884,11.3661173 19.584,9.81333333 C19.4521136,4.5669998 15.2303335,0.34521976 9.984,0.213333333 L9.984,0.213333333 Z M16.9173333,13.5466667 C16.9173333,13.5466667 11.584,22.08 9.984,22.08 C8.384,22.08 3.05066667,13.5466667 3.05066667,13.5466667 C2.43063541,12.3934655 2.06679673,11.1200301 1.984,9.81333333 C1.984,5.39505533 5.565722,1.81333333 9.984,1.81333333 C14.402278,1.81333333 17.984,5.39505533 17.984,9.81333333 C17.8962553,11.1212384 17.5269394,12.3947414 16.9013333,13.5466667 L16.9173333,13.5466667 Z" id="Shape"></path>
            <path d="M9.984,5.01333333 C7.62758507,5.01333333 5.71733333,6.92358507 5.71733333,9.28 C5.71733333,11.6364149 7.62758507,13.5466667 9.984,13.5466667 C12.3404149,13.5466667 14.2506667,11.6364149 14.2506667,9.28 C14.2506667,6.92358507 12.3404149,5.01333333 9.984,5.01333333 Z M9.984,11.9466667 C8.51124067,11.9466667 7.31733333,10.7527593 7.31733333,9.28 C7.31733333,7.80724067 8.51124067,6.61333333 9.984,6.61333333 C11.4567593,6.61333333 12.6506667,7.80724067 12.6506667,9.28 C12.6506667,10.7527593 11.4567593,11.9466667 9.984,11.9466667 Z" id="Shape"></path>
        </g>
    </g>
</svg>