<?xml version="1.0" encoding="UTF-8"?>
<svg width="30px" height="30px" viewBox="0 0 30 30" version="1.1" xmlns="http://www.w3.org/2000/svg" xmlns:xlink="http://www.w3.org/1999/xlink">
    <!-- Generator: Sketch 58 (84663) - https://sketch.com -->
    <title>icon/mail</title>
    <desc>Created with Sketch.</desc>
    <g id="icon/mail" stroke="none" stroke-width="1" fill="none" fill-rule="evenodd">
        <g id="Mail" transform="translate(3.000000, 6.000000)" fill="#000000">
            <path d="M22.2506667,0.213333333 L1.984,0.213333333 C1.1003444,0.213333333 0.384,0.929677734 0.384,1.81333333 L0.384,16.7466667 C0.384,17.6303223 1.1003444,18.3466667 1.984,18.3466667 L22.2506667,18.3466667 C23.1343223,18.3466667 23.8506667,17.6303223 23.8506667,16.7466667 L23.8506667,1.81333333 C23.8506667,0.929677734 23.1343223,0.213333333 22.2506667,0.213333333 Z M22.2506667,15.616 L18.016,11.3813333 C17.7007896,11.0876172 17.2095896,11.0962839 16.9049367,11.4009367 C16.6002839,11.7055896 16.5916172,12.1967896 16.8853333,12.512 L21.12,16.7466667 L3.11466667,16.7466667 L7.34933333,12.512 C7.64304945,12.1967896 7.6343828,11.7055896 7.32972992,11.4009367 C7.02507704,11.0962839 6.53387707,11.0876172 6.21866667,11.3813333 L1.984,15.616 L1.984,5.34933333 L11.584,12.5866667 C11.8684444,12.8 12.2595556,12.8 12.544,12.5866667 L22.24,5.344 L22.2506667,15.616 Z M22.2506667,1.81333333 L22.2506667,3.34933333 L12.08,10.9493333 L1.984,3.34933333 L1.984,1.81333333 L22.2506667,1.81333333 Z" id="Shape"></path>
        </g>
    </g>
</svg>